<svg xmlns="http://www.w3.org/2000/svg" width="192" height="192" viewBox="0 0 192 192">
  <rect width="192" height="192" rx="40" fill="#2563eb"/>
  <g transform="translate(32, 36)">
    <!-- Car body -->
    <path d="M16 88l12-36h72l12 36" stroke="white" stroke-width="5" stroke-linecap="round" stroke-linejoin="round" fill="none"/>
    <!-- Roof / windshield -->
    <path d="M36 52l9-24h54l9 24" stroke="white" stroke-width="4" stroke-linecap="round" fill="none"/>
    <!-- Undercarriage -->
    <path d="M10 88h108v12a8 8 0 01-8 8H18a8 8 0 01-8-8V88z" fill="white" opacity="0.15"/>
    <!-- Wheels -->
    <circle cx="38" cy="100" r="12" fill="white"/>
    <circle cx="90" cy="100" r="12" fill="white"/>
    <circle cx="38" cy="100" r="5" fill="#2563eb"/>
    <circle cx="90" cy="100" r="5" fill="#2563eb"/>
    <!-- Axle -->
    <path d="M50 100h28" stroke="white" stroke-width="3"/>
    <!-- Speed lines -->
    <path d="M2 72h14M-2 82h10M4 92h8" stroke="white" stroke-width="3" stroke-linecap="round" opacity="0.4"/>
  </g>
</svg>
